<svg xmlns="http://www.w3.org/2000/svg" xmlns:xlink="http://www.w3.org/1999/xlink" viewBox="0 0 83.32 83.32"><defs><style>.cls-1{fill:url(#linear-gradient);}.cls-2{fill:url(#linear-gradient-2);}</style><linearGradient id="linear-gradient" x1="27.05" y1="65.98" x2="69.66" y2="39.35" gradientUnits="userSpaceOnUse"><stop offset="0" stop-color="#ff9d00"/><stop offset="1" stop-color="#ffe500"/></linearGradient><linearGradient id="linear-gradient-2" x1="13.4" y1="44.13" x2="56.01" y2="17.5" xlink:href="#linear-gradient"/></defs><g id="Layer_2" data-name="Layer 2"><g id="Layer_1-2" data-name="Layer 1"><rect width="83.32" height="83.32" rx="11.68"/><path class="cls-1" d="M58.28,39v8a4.07,4.07,0,0,1-4.07,4.06H17.55v4.6a2,2,0,0,0,1.65,2l39.31,7.6a6.1,6.1,0,0,0,7.26-6V37H60.31A2,2,0,0,0,58.28,39Z"/><path class="cls-2" d="M64.12,25.67l-39.31-7.6a6.1,6.1,0,0,0-7.26,6V46.35H23a2,2,0,0,0,2-2v-8a4.07,4.07,0,0,1,4.07-4.07H65.77v-4.6A2,2,0,0,0,64.12,25.67Z"/></g></g></svg>